<?xml version="1.0" encoding="UTF-8"?>
<svg id="Ebene_2" data-name="Ebene 2" xmlns="http://www.w3.org/2000/svg" viewBox="0 0 827.17 944.96">
  <defs>
    <style>
      .cls-1 {
        fill: #fff;
      }
    </style>
  </defs>
  <g id="_1UP" data-name="1UP">
    <g>
      <path class="cls-1" d="m826.7,592c-1.12-3.44-4.09-5.95-7.67-6.47l-195.21-28.37-87.3-176.89c-1.6-3.24-4.9-5.3-8.52-5.3s-6.92,2.05-8.52,5.3l-87.3,176.89-195.21,28.37c-3.58.52-6.55,3.03-7.67,6.47-1.12,3.44-.19,7.21,2.4,9.74l141.26,137.69-33.35,194.42c-.61,3.56.85,7.17,3.78,9.29,2.93,2.13,6.8,2.41,10,.72l174.6-91.79,174.6,91.79c1.39.73,2.91,1.09,4.42,1.09,1.97,0,3.93-.61,5.58-1.81,2.93-2.12,4.39-5.73,3.78-9.29l-33.35-194.42,141.25-137.69c2.59-2.52,3.52-6.3,2.4-9.74Zm-434.48,82.81c-1.69-1.09-3.38-2.62-5.07-4.61-1.69-1.99-2.53-4.73-2.53-8.23,0-6.51,3.98-11.16,11.94-13.93l21.17-7.6h6.15c4.58,0,8.26,1.39,11.04,4.16,2.77,2.78,4.16,6.45,4.16,11.04v95.89c-1.33.36-3.08.72-5.25,1.08-2.17.36-4.59.54-7.24.54-5.43,0-9.35-.9-11.76-2.71-2.41-1.81-3.62-5.25-3.62-10.31v-72.01l-19,6.69Zm99.96,76.89c-5.85-2.05-10.83-4.94-14.93-8.68-4.1-3.74-7.24-8.23-9.41-13.48-2.17-5.25-3.26-11.13-3.26-17.64v-70.2c1.33-.24,3.23-.54,5.7-.9,2.47-.36,4.98-.54,7.51-.54,5.43,0,9.32.9,11.67,2.71,2.35,1.81,3.53,5.37,3.53,10.67v57.72c0,6.51,1.78,11.55,5.34,15.11,3.56,3.56,8.17,5.34,13.84,5.34s10.46-1.78,14.02-5.34c3.56-3.56,5.34-8.59,5.34-15.11v-69.66c1.33-.24,3.23-.54,5.7-.9,2.47-.36,4.97-.54,7.51-.54,5.43,0,9.32.9,11.67,2.71,2.35,1.81,3.53,5.37,3.53,10.67v58.26c0,6.51-1.09,12.39-3.26,17.64s-5.31,9.74-9.41,13.48c-4.1,3.74-9.11,6.63-15.02,8.68-5.91,2.05-12.61,3.08-20.08,3.08s-14.14-1.03-19.99-3.08Zm176.04-57.81c-2.11,4.77-5.16,8.84-9.14,12.21-3.98,3.38-8.84,5.97-14.56,7.78-5.73,1.81-12.21,2.71-19.45,2.71h-11.94v34.92c-1.33.36-3.2.69-5.61,1-2.41.3-4.95.45-7.6.45-5.67,0-9.62-.97-11.85-2.89-2.23-1.93-3.35-5.43-3.35-10.49v-87.75c0-2.41.63-4.28,1.9-5.61,1.27-1.33,3.1-2.35,5.52-3.08,1.93-.72,4.13-1.33,6.6-1.81,2.47-.48,5-.9,7.6-1.27s5.19-.6,7.78-.72c2.59-.12,5.04-.18,7.33-.18,16.4,0,28.83,3.47,37.27,10.4,8.44,6.94,12.66,16.44,12.66,28.5,0,5.79-1.06,11.07-3.17,15.83Z"/>
      <path class="cls-1" d="m623.44,661.97c-2.17,0-4.07.06-5.7.18-1.63.12-3.23.3-4.79.54v31.66h10.31c5.91,0,10.61-1.36,14.11-4.07,3.5-2.71,5.25-6.78,5.25-12.21,0-10.73-6.39-16.1-19.18-16.1Z"/>
    </g>
    <text/>
  </g>
</svg>