<?xml version="1.0" encoding="UTF-8"?>
<svg id="Ebene_2" data-name="Ebene 2" xmlns="http://www.w3.org/2000/svg" viewBox="0 0 598.33 569.98">
  <defs>
    <style>
      .cls-1 {
        fill: #fff;
      }
    </style>
  </defs>
  <g id="BlackHole">
    <g>
      <path class="cls-1" d="m597.87,217.02c-.42-1.29-1.1-2.45-1.97-3.42-.77-.86-1.71-1.55-2.74-2.08-.24-.12-.49-.24-.74-.34-.7-.29-1.44-.51-2.22-.62l-37.64-5.47-5.95-.87-79.76-11.59-16.85-2.45-28.9-4.2-25.1-3.65c15.73,16.53,27.76,36.14,34.64,59.01,9.08,30.52,9.04,60.96-3.04,90.88-12.65,30.79-34.68,53.64-66.1,64.85-11.69,3.95-23.74,5.68-35.51,5.03,1.47.54,2.96,1.05,4.46,1.52,28.45,8.96,57.77,3.47,82.33-12.25,6.04-3.99,11.04-8.03,16.51-12.88,14.13-13.36,24.52-29.96,30.77-48.11-6.42,22.13-17.45,42.57-33.97,60.14-21.89,23.12-48.27,38.31-80.23,42.81-32.99,4.44-63.8-3.21-89.21-24.82-9.27-8.14-16.79-17.72-22.11-28.23.27,1.54.57,3.09.92,4.62,6.47,29.12,25.88,51.77,51.77,65.17,6.47,3.24,12.48,5.55,19.41,7.86,18.64,5.56,38.2,6.25,57.05,2.59-22.38,5.5-45.6,6.17-69.07.65-30.97-7.4-57.32-22.65-77.19-48.07-20.34-26.35-29.12-56.85-23.11-89.67,2.42-12.1,6.95-23.4,13.4-33.26-1.2,1-2.39,2.04-3.55,3.11-21.98,20.16-31.89,48.3-30.56,77.42.43,7.22,1.44,13.58,2.9,20.74,4.51,18.92,13.68,36.21,26.28,50.7-15.96-16.63-28.14-36.4-35.1-59.49-9.08-30.52-9.04-60.96,3.04-90.88,12.65-30.79,34.68-53.64,66.1-64.85,11.69-3.95,23.74-5.68,35.51-5.03-1.47-.54-2.96-1.05-4.46-1.52-28.45-8.96-57.77-3.47-82.33,12.25-6.04,3.99-11.04,8.03-16.51,12.88-14.13,13.36-24.52,29.96-30.77,48.11,6.42-22.13,17.45-42.57,33.97-60.14,21.89-23.12,48.27-38.31,80.23-42.81,32.99-4.44,63.8,3.21,89.21,24.82,9.27,8.14,16.79,17.72,22.11,28.23-.27-1.54-.57-3.09-.92-4.62-6.47-29.12-25.88-51.77-51.77-65.17-6.47-3.24-12.48-5.55-19.41-7.86-18.64-5.56-38.2-6.25-57.05-2.59,22.38-5.5,45.6-6.17,69.07-.65,30.97,7.4,57.32,22.65,77.19,48.07,20.34,26.35,29.12,56.85,23.11,89.67-2.42,12.1-6.95,23.4-13.4,33.26,1.2-1,2.39-2.04,3.55-3.11,21.98-20.16,31.89-48.3,30.56-77.42-.43-7.22-1.44-13.58-2.9-20.74-4.46-18.71-13.49-35.83-25.88-50.22l-.95-.14-15.87-32.15s0,0,0,0l-15.34-31.07-20.41-41.36-11.66-23.62h0l-17.4-35.25-6.64-13.45c-1.6-3.24-4.9-5.3-8.52-5.3s-6.92,2.05-8.52,5.3l-5.4,10.94-15.55,31.5-10.04,20.34h0l-16.49,33.41h0l-10.96,22.21h0l-19.11,38.72h0l-9.75,19.76-123.3,17.92-28.63,4.16-36.71,5.33-6.58.96c-.08.01-.16.04-.23.05-2.49.43-4.66,1.81-6.09,3.8-.57.79-1.03,1.66-1.34,2.61-.26.82-.41,1.65-.45,2.48,0,.05-.01.09-.01.14-.01.44,0,.88.05,1.31.14,1.3.54,2.56,1.19,3.71.43.76.98,1.47,1.63,2.1l141.26,137.69-3.39,19.75h0s-6.01,35.05-6.01,35.05l-7.91,46.09-8.79,51.25-2.41,14.03-4.85,28.25c-.08.45-.12.89-.13,1.34-.01.44,0,.89.05,1.32.19,1.74.87,3.4,1.95,4.79.27.35.56.68.88.98s.66.6,1.03.86c0,0,0,0,0,0,.34.24.69.46,1.05.65.05.03.1.06.15.08.34.18.7.33,1.05.47.07.02.13.05.2.07.36.13.72.23,1.09.31.06.01.12.02.18.04.38.08.77.14,1.16.16.02,0,.05,0,.07,0,.21.01.42.02.63.02.12,0,.23-.02.35-.02.16,0,.33-.01.49-.03.25-.02.51-.06.76-.1.16-.03.31-.05.47-.08.27-.06.54-.14.81-.23.13-.04.26-.07.39-.12.39-.14.78-.31,1.15-.5,0,0,0,0,0,0l2.71-1.42h0s19.49-10.25,19.49-10.25h0s31.61-16.62,31.61-16.62l23.12-12.15,31.33-16.47h0l66.35-34.88,95.2,50.05,31.03,16.31,22.13,11.63s0,0,0,0l26.25,13.8c.17.09.35.16.53.24,1.24.56,2.56.85,3.89.85.92,0,1.83-.14,2.71-.4,1.01-.3,1.99-.77,2.87-1.41.73-.53,1.37-1.15,1.91-1.85,1.62-2.08,2.33-4.77,1.87-7.44l-1.74-10.14-2.67-15.55-28.94-168.73,141.25-137.69c.32-.32.62-.65.89-1,1.08-1.41,1.74-3.08,1.92-4.81.14-1.3,0-2.64-.41-3.93ZM160.65,504.72l.42-2.43c.53.47,1.07.91,1.6,1.37l-2.02,1.06Z"/>
      <circle class="cls-1" cx="299.17" cy="311.99" r="41.35" transform="translate(-46.11 51.95) rotate(-9.22)"/>
    </g>
  </g>
</svg>