<?xml version="1.0" encoding="UTF-8"?>
<svg id="Ebene_2" data-name="Ebene 2" xmlns="http://www.w3.org/2000/svg" viewBox="0 0 727.46 727.46">
  <defs>
    <style>
      .cls-1 {
        fill: #fff;
      }
    </style>
  </defs>
  <g id="Bomb">
    <g>
      <path class="cls-1" d="m363.73,721.96c-2.57,0-4.8-1.78-5.36-4.29l-22.12-97.91c-49.28-5.22-95.49-24.37-134.12-55.56l-84.88,53.6c-.9.57-1.92.85-2.93.85-1.42,0-2.83-.55-3.89-1.61-1.82-1.82-2.13-4.65-.76-6.83l53.6-84.88c-31.19-38.63-50.33-84.84-55.56-134.12l-97.91-22.12c-2.51-.57-4.29-2.79-4.29-5.37s1.78-4.8,4.29-5.36l97.91-22.12c5.22-49.28,24.37-95.49,55.56-134.12l-53.6-84.88c-1.37-2.17-1.06-5.01.76-6.83,1.06-1.06,2.47-1.61,3.89-1.61,1.01,0,2.03.28,2.93.85l84.88,53.6c38.63-31.19,84.84-50.33,134.12-55.56l22.12-97.91c.57-2.51,2.79-4.29,5.36-4.29s4.8,1.78,5.37,4.29l22.12,97.91c49.28,5.22,95.49,24.37,134.12,55.56l84.88-53.6c.9-.57,1.92-.85,2.93-.85,1.42,0,2.83.55,3.89,1.61,1.82,1.82,2.13,4.65.76,6.83l-53.6,84.88c31.19,38.63,50.33,84.84,55.56,134.12l97.91,22.12c2.51.57,4.29,2.79,4.29,5.36s-1.78,4.8-4.29,5.37l-97.91,22.12c-5.22,49.28-24.37,95.49-55.56,134.12l53.6,84.88c1.37,2.17,1.06,5.01-.76,6.83-1.06,1.06-2.47,1.61-3.89,1.61-1.01,0-2.03-.28-2.93-.85l-84.88-53.6c-38.63,31.19-84.84,50.33-134.12,55.56l-22.12,97.91c-.57,2.51-2.79,4.29-5.37,4.29Z"/>
      <path class="cls-1" d="m363.73,11l22.99,101.79c52.32,4.73,100.03,25.45,138.19,57.24l88.23-55.72-55.72,88.23c31.79,38.17,52.51,85.87,57.24,138.19l101.79,22.99-101.79,22.99c-4.73,52.32-25.45,100.03-57.24,138.19l55.72,88.23-88.23-55.72c-38.17,31.79-85.87,52.51-138.19,57.24l-22.99,101.79-22.99-101.79c-52.32-4.73-100.03-25.45-138.19-57.24l-88.23,55.72,55.72-88.23c-31.79-38.17-52.51-85.87-57.24-138.19l-101.79-22.99,101.79-22.99c4.73-52.32,25.45-100.03,57.24-138.19l-55.72-88.23,88.23,55.72c38.17-31.79,85.87-52.51,138.19-57.24l22.99-101.79m0-11c-5.14,0-9.6,3.56-10.73,8.58l-21.26,94.1c-47.56,5.76-92.2,24.25-129.99,53.85l-81.57-51.51c-1.81-1.14-3.85-1.7-5.87-1.7-2.84,0-5.66,1.1-7.78,3.22-3.64,3.64-4.27,9.3-1.52,13.65l51.51,81.57c-29.59,37.78-48.09,82.42-53.85,129.99l-94.1,21.26c-5.01,1.13-8.58,5.59-8.58,10.73s3.56,9.6,8.58,10.73l94.1,21.26c5.76,47.56,24.25,92.2,53.85,129.99l-51.51,81.57c-2.75,4.35-2.11,10.02,1.52,13.65,2.12,2.12,4.94,3.22,7.78,3.22,2.02,0,4.06-.56,5.87-1.7l81.57-51.51c37.78,29.59,82.42,48.09,129.99,53.85l21.26,94.1c1.13,5.01,5.59,8.58,10.73,8.58s9.6-3.56,10.73-8.58l21.26-94.1c47.56-5.76,92.2-24.25,129.99-53.85l81.57,51.51c1.81,1.14,3.85,1.7,5.87,1.7,2.84,0,5.66-1.1,7.78-3.22,3.64-3.64,4.27-9.3,1.52-13.65l-51.51-81.57c29.59-37.78,48.09-82.42,53.85-129.99l94.1-21.26c5.02-1.13,8.58-5.59,8.58-10.73s-3.56-9.6-8.58-10.73l-94.1-21.26c-5.76-47.56-24.25-92.2-53.85-129.99l51.51-81.57c2.75-4.35,2.11-10.02-1.52-13.65-2.12-2.12-4.94-3.22-7.78-3.22-2.02,0-4.06.56-5.87,1.7l-81.57,51.51c-37.78-29.59-82.42-48.09-129.99-53.85l-21.26-94.1c-1.13-5.01-5.59-8.58-10.73-8.58h0Z"/>
    </g>
  </g>
</svg>