<?xml version="1.0" encoding="UTF-8"?>
<svg id="Ebene_2" data-name="Ebene 2" xmlns="http://www.w3.org/2000/svg" viewBox="0 0 647.25 703.5">
  <defs>
    <style>
      .cls-1 {
        fill: none;
        stroke: #fff;
        stroke-linecap: round;
        stroke-linejoin: round;
        stroke-width: 20px;
      }
    </style>
  </defs>
  <g id="Cyclone">
    <g>
      <g>
        <path class="cls-1" d="m352.25,693.5c-189.04,0-342-152.96-342-342"/>
        <path class="cls-1" d="m67.25,351.5c0,157.53,127.47,285,285,285s285-127.47,285-285"/>
        <path class="cls-1" d="m580.25,351.5c0,126.02-101.98,228-228,228s-228-101.98-228-228"/>
        <path class="cls-1" d="m181.25,351.5c0,94.52,76.48,171,171,171s171-76.48,171-171"/>
        <path class="cls-1" d="m466.25,351.5c0,63.01-50.99,114-114,114s-114-50.99-114-114"/>
        <path class="cls-1" d="m295.25,351.5c0,31.51,25.49,57,57,57s57-25.49,57-57"/>
      </g>
      <g>
        <path class="cls-1" d="m295,10c189.04,0,342,152.96,342,342"/>
        <path class="cls-1" d="m580,352c0-157.53-127.47-285-285-285S10,194.47,10,352"/>
        <path class="cls-1" d="m67,352c0-126.02,101.98-228,228-228s228,101.98,228,228"/>
        <path class="cls-1" d="m466,352c0-94.52-76.48-171-171-171s-171,76.48-171,171"/>
        <path class="cls-1" d="m181,352c0-63.01,50.99-114,114-114s114,50.99,114,114"/>
        <path class="cls-1" d="m352,352c0-31.51-25.49-57-57-57s-57,25.49-57,57"/>
      </g>
    </g>
  </g>
</svg>