<?xml version="1.0" encoding="UTF-8"?>
<svg id="Ebene_2" data-name="Ebene 2" xmlns="http://www.w3.org/2000/svg" viewBox="0 0 382.38 563.87">
  <defs>
    <style>
      .cls-1 {
        fill: #fff;
      }
    </style>
  </defs>
  <g id="Foe3">
    <path class="cls-1" d="m369.71,99.58c-9.68-34.51-23.3-44.14-35.27-64.3-5.25-6.4-20.78-28.53-54.87-35.27v146.61c27.47,45.36,25.74,82.91,7.61,109.58-12.76-28.78-50.62-27.28-95.33-27.28s-83.58-1.53-95.83,28.46c-18.89-26.74-21.08-64.73,6.8-110.76V0c-34.09,6.75-49.62,28.88-54.87,35.27-11.97,20.16-25.6,29.79-35.27,64.3C-.75,147.45-1.12,142.1.91,170.12c2.71,14.04,18.03,84.71,61.22,138.07,11.77,16.59,30.96,38.69,67.43,51.47,16.47,6.54,34.91,10.34,55.56,10.34,2.06,0,4.08-.03,6.07-.07,2,.04,4.02.07,6.07.07,20.65,0,39.09-3.81,55.56-10.34,36.47-12.78,55.65-34.88,67.43-51.47,43.19-53.36,58.51-124.03,61.22-138.07,2.04-28.02,1.66-22.67-11.76-70.55Z"/>
    <path class="cls-1" d="m369.71,557.42c-9.68,34.51-23.3-81.86-35.27-61.7-5.25,6.4-20.78,28.53-54.87,35.27v-20.61c27.47-45.36,25.74-82.91,7.61-109.58-12.76,28.78-50.62,27.28-95.33,27.28s-83.58,1.53-95.83-28.46c-18.89,26.74-21.08,64.73,6.8,110.76v20.61c-34.09-6.75-49.62-28.88-54.87-35.27-11.97-20.16-25.6,96.21-35.27,61.7C-.75,509.55-1.12,514.9.91,486.88c2.71-14.04,18.03-84.71,61.22-138.07,11.77-16.59,30.96-38.69,67.43-51.47,16.47-6.54,34.91-10.34,55.56-10.34,2.06,0,4.08.03,6.07.07,2-.04,4.02-.07,6.07-.07,20.65,0,39.09,3.81,55.56,10.34,36.47,12.78,55.65,34.88,67.43,51.47,43.19,53.36,58.51,124.03,61.22,138.07,2.04,28.02,1.66,22.67-11.76,70.55Z"/>
  </g>
</svg>