<?xml version="1.0" encoding="UTF-8"?>
<svg id="Ebene_2" data-name="Ebene 2" xmlns="http://www.w3.org/2000/svg" viewBox="0 0 244 170.89">
  <defs>
    <style>
      .cls-1 {
        fill: #fff;
      }
    </style>
  </defs>
  <g id="Foe4">
    <path class="cls-1" d="m171,0v20.32c27.01,5.59,48.07,27.62,52.23,55.12h-66.65c-4.33-15.02-18.17-26-34.58-26s-30.25,10.98-34.58,26H20.77c4.17-27.5,25.22-49.53,52.23-55.12V0C34.94,5.99,5.06,36.9.6,75.44h-.1v.84c-.32,3.01-.5,6.06-.5,9.16s.18,6.14.5,9.16v.84h.1c4.46,38.54,34.34,69.45,72.4,75.44v-20.32c-27.01-5.59-48.07-27.62-52.23-55.12h66.65c4.33,15.02,18.17,26,34.58,26s30.25-10.98,34.58-26h66.65c-4.17,27.5-25.22,49.53-52.23,55.12v20.32c41.31-6.5,73-42.34,73-85.44S212.31,6.5,171,0Z"/>
  </g>
</svg>