<?xml version="1.0" encoding="UTF-8"?>
<svg id="Ebene_2" data-name="Ebene 2" xmlns="http://www.w3.org/2000/svg" viewBox="0 0 598.33 569.98">
  <defs>
    <style>
      .cls-1 {
        fill: #fff;
      }
    </style>
  </defs>
  <g id="Shield">
    <path class="cls-1" d="m597.87,217.02c-1.12-3.44-4.09-5.95-7.67-6.47l-195.21-28.37L307.68,5.3c-1.6-3.24-4.9-5.3-8.52-5.3s-6.92,2.05-8.52,5.3l-87.3,176.89L8.13,210.55c-3.58.52-6.55,3.03-7.67,6.47-1.12,3.44-.19,7.21,2.4,9.74l141.26,137.69-33.35,194.42c-.61,3.56.85,7.17,3.78,9.29,2.93,2.13,6.8,2.41,10,.72l174.6-91.79,174.6,91.79c1.39.73,2.91,1.09,4.42,1.09,1.97,0,3.93-.61,5.58-1.81,2.93-2.12,4.39-5.73,3.78-9.29l-33.35-194.42,141.25-137.69c2.59-2.52,3.52-6.3,2.4-9.74Zm-298.7,239.97c-79.95,0-145-65.05-145-145s65.05-145,145-145,145,65.05,145,145-65.05,145-145,145Z"/>
    <path class="cls-1" d="m299.17,186.99c-68.93,0-125,56.07-125,125s56.07,125,125,125,125-56.08,125-125-56.08-125-125-125Zm0,215c-49.71,0-90-40.29-90-90s40.29-90,90-90,90,40.29,90,90-40.29,90-90,90Z"/>
  </g>
</svg>