<?xml version="1.0" encoding="UTF-8"?>
<svg id="Ebene_2" xmlns="http://www.w3.org/2000/svg" viewBox="0 0 431.43 410.31">
  <defs>
    <style>
      .cls-1 {
        fill: #fff;
      }
    </style>
  </defs>
  <g id="Player">
    <path class="cls-1" d="M431.43,371.73l-22.14-28.88c1.86-9.07,3.03-22.29,3.03-37.03,0-27.34-4.03-49.5-9-49.5s-9,22.16-9,49.5c0,6.48.23,12.66.64,18.33l-128.32-167.42L215.71,0l-50.92,156.73-113.47,148.05c-.1-26.86-4.09-48.46-9-48.46s-9,22.16-9,49.5c0,7.62.31,14.85.87,21.3L0,371.73l133.32-27.14-15.92,65.73,98.32-48.86,98.32,48.86-15.92-65.73,133.32,27.14Z"/>
  </g>
</svg>