<?xml version="1.0" encoding="UTF-8"?>
<svg id="Ebene_2" data-name="Ebene 2" xmlns="http://www.w3.org/2000/svg" viewBox="0 0 598.33 569.98">
  <defs>
    <style>
      .cls-1 {
        fill: #fff;
      }
    </style>
  </defs>
  <g id="Stealth">
    <path class="cls-1" d="m597.87,217.02c-1.12-3.44-4.09-5.95-7.67-6.47l-195.21-28.37L307.68,5.3c-1.6-3.24-4.9-5.3-8.52-5.3s-6.92,2.05-8.52,5.3l-87.3,176.89L8.13,210.55c-3.58.52-6.55,3.03-7.67,6.47-1.12,3.44-.19,7.21,2.4,9.74l141.26,137.69-33.35,194.42c-.61,3.56.85,7.17,3.78,9.29,2.93,2.13,6.8,2.41,10,.72l174.6-91.79,174.6,91.79c1.39.73,2.91,1.09,4.42,1.09,1.97,0,3.93-.61,5.58-1.81,2.93-2.12,4.39-5.73,3.78-9.29l-33.35-194.42,141.25-137.69c2.59-2.52,3.52-6.3,2.4-9.74Z"/>
    <g>
      <polygon points="185.56 397.08 180.64 403.5 220.34 403.5 251.09 397.24 249.57 403.5 348.76 403.5 347.24 397.24 377.99 403.5 417.69 403.5 412.77 397.08 185.56 397.08"/>
      <path d="m201.01,350.99c-.85-3.3-1.89-5.25-3.02-5.25s-2.16,1.95-3.02,5.25h6.03Z"/>
      <path d="m403.46,379.58c.06,1.99.16,3.91.29,5.74l-4.4-5.74h-206.53c.07,2.24.19,4.39.35,6.42h220.28c.16-2.03.28-4.18.35-6.42h-10.34Z"/>
      <path d="m203.13,368.49c-.09-2.25-.22-4.4-.4-6.42h-9.46c-.18,2.02-.31,4.17-.4,6.42h10.26Z"/>
      <polygon points="385.94 362.07 212.39 362.07 207.47 368.49 390.86 368.49 385.94 362.07"/>
      <path d="m403.9,362.07c-.18,2.02-.31,4.17-.4,6.42h10.26c-.09-2.25-.22-4.4-.4-6.42h-9.46Z"/>
      <polygon points="242.65 432.09 241.8 435.59 248.84 432.09 242.65 432.09"/>
      <polygon points="356.53 435.59 355.68 432.09 349.49 432.09 356.53 435.59"/>
      <polygon points="314.27 414.59 327.18 421 353 421 351.44 414.59 314.27 414.59"/>
      <polygon points="246.89 414.59 245.33 421 271.15 421 284.06 414.59 246.89 414.59"/>
      <polygon points="279.39 257.05 277.3 263.47 321.03 263.47 318.94 257.05 279.39 257.05"/>
      <polygon points="285.08 239.54 282.99 245.96 315.34 245.96 313.25 239.54 285.08 239.54"/>
      <polygon points="290.76 222.04 288.68 228.46 309.65 228.46 307.57 222.04 290.76 222.04"/>
      <polygon points="273.7 274.55 271.62 280.97 326.71 280.97 324.63 274.55 273.7 274.55"/>
      <polygon points="296.45 204.54 294.37 210.95 303.97 210.95 301.88 204.54 296.45 204.54"/>
      <path d="m408.63,345.74c-1.12,0-2.16,1.95-3.02,5.25h6.03c-.85-3.3-1.89-5.25-3.02-5.25Z"/>
      <polygon points="239.23 327.07 234.31 333.48 364.02 333.48 359.11 327.07 239.23 327.07"/>
      <polygon points="220.89 350.99 377.44 350.99 372.52 344.57 225.81 344.57 220.89 350.99"/>
      <polygon points="266.06 292.06 261.14 298.48 337.19 298.48 332.27 292.06 266.06 292.06"/>
      <polygon points="252.64 309.56 247.72 315.98 350.61 315.98 345.69 309.56 252.64 309.56"/>
    </g>
    <path d="m360.84,440.99l-61.68-30.65-61.68,30.65,9.68-39.97-80.93,16.47,24.01-31.33c-.28-3.66-.43-7.53-.43-11.54,0-7.88.56-15.32,1.59-20.94.98-5.37,2.52-10.85,6.58-10.85s5.57,5.38,6.54,10.65c.64,3.48,1.11,7.68,1.37,12.26l60.92-79.48,32.33-99.51,32.33,99.51,68.97,89.98c0-.54,0-1.08,0-1.62,0-7.88.56-15.32,1.59-20.94.98-5.37,2.52-10.85,6.58-10.85s5.61,5.49,6.58,10.85c1.02,5.62,1.59,13.06,1.59,20.94s-.57,15.3-1.57,20.87l16.86,22-80.93-16.47,9.68,39.97Zm-61.68-37.17l53.06,26.37-8.9-36.72,74.64,15.19-8.98-11.72.27-1.3c1.09-5.3,1.71-12.96,1.71-21.02,0-11.71-1.21-19.71-2.33-23.67-1.12,3.96-2.33,11.96-2.33,23.67,0,3.61.12,7.14.37,10.49l.7,9.72-81.11-105.82-.15-.48-26.94-82.91-27.09,83.38-71.71,93.56-.03-8.55c-.04-11.37-1.24-19.17-2.33-23.06-1.12,3.96-2.33,11.96-2.33,23.66,0,4.26.17,8.36.5,12.17l.1,1.13-15.9,20.74,74.64-15.19-8.9,36.72,53.06-26.37Z"/>
  </g>
</svg>