<?xml version="1.0" encoding="UTF-8"?>
<svg id="Ebene_2" data-name="Ebene 2" xmlns="http://www.w3.org/2000/svg" viewBox="0 0 598.32 569.98">
  <defs>
    <style>
      .cls-1 {
        fill: #fff;
      }
    </style>
  </defs>
  <g id="Stealth">
    <path class="cls-1" d="m598.29,219.31c-.02-.28-.04-.56-.09-.83-.02-.12-.04-.24-.07-.37-.07-.36-.15-.73-.27-1.09,0,0,0,0,0,0-.14-.43-.31-.85-.5-1.24-.2-.4-.42-.78-.66-1.14-.37-.54-.8-1.03-1.27-1.48-.47-.46-.97-.88-1.53-1.23-.37-.23-.75-.44-1.15-.62-.11-.05-.23-.08-.34-.12-.7-.29-1.44-.51-2.22-.62l-120.88-17.57h0l-74.33-10.8-10.96-22.2h0l-3.24-6.57-26.37-53.43h0l-13.33-27h0L307.68,5.3c-.08-.17-.19-.32-.28-.48-1.68-2.95-4.81-4.81-8.24-4.81-2.71,0-5.25,1.15-7.02,3.1-.59.65-1.1,1.38-1.5,2.2l-3.8,7.69h0l-13.33,27h0l-45.9,93h0l-13.33,27h0l-10.96,22.2-74.33,10.8h0l-120.88,17.57c-.08.01-.16.04-.23.05-.81.14-1.59.37-2.32.69-.69.31-1.33.72-1.92,1.19-.43.34-.85.7-1.22,1.11-.29.32-.56.67-.81,1.03-.25.36-.47.75-.66,1.14-.2.4-.36.81-.5,1.24,0,0,0,0,0,0-.12.36-.2.72-.27,1.09-.02.12-.05.24-.07.37-.04.28-.07.55-.09.83,0,.07-.02.14-.02.21,0,.04-.01.08-.01.12-.01.44,0,.88.05,1.31.14,1.3.54,2.56,1.19,3.71.43.76.98,1.47,1.63,2.1l112.59,109.75,3.57,3.48h0l25.09,24.46-1.46,8.54h0l-3.63,21.16-10.15,59.2-1.14,6.64h0l-6.53,38.06-3.76,21.94h0l-5.66,33h0l-.48,2.77-.53,3.11c-.08.45-.12.89-.13,1.34-.01.44,0,.89.05,1.32.19,1.74.87,3.4,1.95,4.79.27.35.56.68.88.98s.66.6,1.03.86c.34.24.69.46,1.05.65.05.03.1.06.15.08.34.18.7.33,1.06.47.07.02.13.05.2.07.36.13.72.23,1.09.31.06.01.12.02.18.04.38.08.77.14,1.16.16.02,0,.05,0,.07,0,.21.01.42.02.63.02h0c.12,0,.23-.02.35-.02.16,0,.33-.01.49-.03.25-.02.51-.06.76-.1.16-.03.31-.05.47-.08.27-.06.54-.14.81-.23.13-.04.26-.07.39-.12.03-.01.06-.02.09-.03.36-.14.72-.3,1.06-.48l133.2-70.03,41.4-21.77,67.72,35.6,13.88,7.3h0l23.88,12.55,38.89,20.45h0l30.24,15.9c.17.09.35.16.53.24,1.24.56,2.56.85,3.89.85.92,0,1.83-.14,2.71-.4,1.01-.3,1.99-.77,2.87-1.41.73-.53,1.37-1.15,1.91-1.85,1.62-2.08,2.33-4.77,1.87-7.44l-10.63-62-.67-3.88h0l-5.66-33h0l-.27-1.59-10.02-58.41h0l-4.63-27h0l-1.46-8.54,25.09-24.46h0l27.7-27h0l88.46-86.23c.32-.32.62-.65.89-1,1.08-1.41,1.74-3.08,1.92-4.81.06-.54.05-1.09.01-1.64Zm-209.06,2.47l134.05,19.48-12.04,11.74H87.09l-12.04-11.74,134.05-19.48,12.27-1.78h155.6l12.27,1.78Zm25.55,149.44l.31,1.78h-231.84l.31-1.78,3.55-20.73-10.77-10.49h245.66l-10.77,10.49,3.55,20.73Zm.58,121.78l-62.77-33h77.42l5.66,33h-20.31Zm-252.7,0l5.66-33h77.42l-62.77,33h-20.31Zm138.57-60l-2.07-1.09-2.07,1.09h-124.14l5.66-33h241.1l5.66,33h-124.14Zm-152.6-120l-33.85-33h368.76l-33.85,33H148.64Zm93.98-120l16.29-33h80.52l16.29,33h-113.09Zm67.19-93l16.29,33h-53.87l16.29-33h21.29Z"/>
  </g>
</svg>