<?xml version="1.0" encoding="UTF-8"?>
<svg id="Ebene_2" xmlns="http://www.w3.org/2000/svg" viewBox="0 0 168.1 459.42">
  <defs>
    <style>
      .cls-1 {
        fill: #fff;
      }
    </style>
  </defs>
  <g id="Torpedo">
    <g>
      <g>
        <path class="cls-1" d="M84.05,72.52c-17.59,0-34.54-1.08-50.38-3.2-4.22-.57-7.26-4.34-6.91-8.59,1.18-14.34,7.66-27.63,18.25-37.44,10.65-9.86,24.52-15.29,39.04-15.29s28.39,5.43,39.04,15.29c10.59,9.8,17.07,23.1,18.25,37.44.35,4.25-2.69,8.02-6.91,8.59-15.84,2.12-32.79,3.2-50.38,3.2Z"/>
        <path d="M84.05,16c25.95,0,47.22,19.98,49.32,45.39-15.35,2.06-31.97,3.13-49.32,3.13s-33.97-1.07-49.32-3.13c2.09-25.41,23.36-45.39,49.32-45.39M84.05,0c-16.55,0-32.34,6.19-44.48,17.42-12.06,11.17-19.44,26.31-20.79,42.65-.7,8.49,5.38,16.04,13.82,17.17,16.19,2.17,33.5,3.27,51.44,3.27s35.25-1.1,51.44-3.27c8.44-1.13,14.52-8.68,13.82-17.17-1.34-16.34-8.73-31.48-20.79-42.65C116.39,6.19,100.6,0,84.05,0h0Z"/>
      </g>
      <g>
        <path class="cls-1" d="M84.05,126.52c-17.09,0-33.61-1.02-49.1-3.03-3.89-.51-6.84-3.76-6.97-7.69l-1.06-33.99c-.07-2.34.88-4.59,2.61-6.16,1.48-1.35,3.4-2.08,5.38-2.08.33,0,.67.02,1,.06,15.25,1.92,31.44,2.89,48.13,2.89s32.87-.97,48.13-2.89c.33-.04.67-.06,1-.06,1.98,0,3.9.74,5.38,2.08,1.73,1.57,2.68,3.83,2.61,6.17l-1.06,33.99c-.12,3.92-3.07,7.18-6.96,7.68-15.49,2.01-32.01,3.03-49.1,3.03Z"/>
        <path d="M133.17,81.56h0M133.17,81.56l-1.06,33.99c-15,1.95-31.19,2.97-48.07,2.97s-33.07-1.02-48.07-2.97l-1.06-33.99c15.46,1.94,31.99,2.95,49.12,2.95s33.67-1.01,49.12-2.95M133.18,65.56c-.13,0-.25,0-.38,0-.63.01-1.25.07-1.86.15-14.85,1.86-30.63,2.8-46.88,2.8s-32.2-.95-47.13-2.83c-.67-.08-1.33-.13-2-.13-3.96,0-7.81,1.47-10.77,4.17-3.46,3.15-5.37,7.65-5.22,12.33l1.06,33.99c.24,7.85,6.15,14.36,13.93,15.37,15.83,2.06,32.7,3.1,50.13,3.1s34.3-1.04,50.13-3.1c7.79-1.01,13.69-7.52,13.93-15.37l1.05-33.68c.01-.26.02-.53.02-.8,0-8.76-7.04-15.87-15.77-16-.08,0-.16,0-.24,0h0ZM133.17,97.56h0,0Z"/>
      </g>
      <g>
        <path class="cls-1" d="M71.18,451.42c-2.17,0-4.24-.88-5.75-2.44-1.51-1.56-2.32-3.66-2.25-5.82l.77-23.58-45.51,14.55c-.8.26-1.62.38-2.44.38-2.18,0-4.31-.89-5.84-2.54-2.11-2.26-2.73-5.53-1.6-8.41l23-58.18c.61-1.55,1.7-2.88,3.1-3.78l33.94-21.88,3.61-40.02c.37-4.12,3.83-7.28,7.97-7.28h7.75c4.17,0,7.64,3.2,7.97,7.36l3.2,40,33.38,21.85c1.35.88,2.4,2.15,3.01,3.64l24,58.18c1.18,2.87.6,6.17-1.5,8.46-1.54,1.68-3.69,2.59-5.9,2.59-.8,0-1.61-.12-2.4-.37l-46.46-14.62.69,23.67c.06,2.16-.75,4.25-2.26,5.81-1.51,1.55-3.58,2.43-5.74,2.43h-24.75Z"/>
        <path d="M87.93,300.42l3.52,43.91,36.66,24,24,58.19-57.18-18,1.01,34.91h-24.75l1.14-34.91-56.31,18,23-58.19,37.22-24,3.96-43.91h7.75M87.93,284.42h-7.75c-8.28,0-15.19,6.32-15.94,14.56l-3.26,36.13-30.66,19.77c-2.81,1.81-4.98,4.46-6.21,7.56L1.12,420.63c-2.27,5.75-1.03,12.29,3.19,16.81,3.07,3.29,7.33,5.07,11.69,5.07,1.63,0,3.27-.25,4.87-.76l34.71-11.1-.4,12.24c-.14,4.33,1.48,8.53,4.5,11.65,3.01,3.11,7.16,4.87,11.5,4.87h24.75c4.32,0,8.46-1.75,11.48-4.85,3.01-3.1,4.64-7.29,4.52-11.61l-.36-12.43,35.74,11.25c1.58.5,3.2.74,4.8.74,4.41,0,8.71-1.83,11.79-5.19,4.2-4.58,5.37-11.17,3-16.92l-24-58.19c-1.23-2.98-3.33-5.52-6.03-7.29l-30.1-19.71-2.89-36.09c-.67-8.31-7.61-14.72-15.95-14.72h0Z"/>
      </g>
      <g>
        <g>
          <path class="cls-1" d="M78.16,344.55c-2.2,0-4.3-.91-5.81-2.5-1.51-1.6-2.3-3.75-2.18-5.94l2.02-36.13c.24-4.24,3.74-7.55,7.99-7.55h7.75c4.26,0,7.78,3.34,7.99,7.6l1.79,36.13c.11,2.19-.68,4.32-2.2,5.91-1.51,1.59-3.6,2.49-5.79,2.49h-11.56Z"/>
          <path d="M87.93,300.42l1.79,36.13h-11.56l2.02-36.13h7.75M87.93,284.42h-7.75c-8.49,0-15.5,6.63-15.98,15.11l-2.02,36.13c-.25,4.39,1.33,8.69,4.35,11.89s7.23,5.01,11.62,5.01h11.56c4.38,0,8.57-1.8,11.59-4.97s4.61-7.45,4.39-11.82l-1.79-36.13c-.42-8.52-7.45-15.21-15.98-15.21h0Z"/>
        </g>
        <g>
          <path class="cls-1" d="M41.98,344.55c-1.25,0-2.5-.29-3.65-.88-2.6-1.33-4.27-3.98-4.35-6.91l-5.37-200.78c-.06-2.33.89-4.56,2.61-6.13,1.48-1.35,3.41-2.08,5.39-2.08.32,0,.64.02.96.06,14.79,1.79,30.43,2.69,46.48,2.69s31.69-.91,46.48-2.69c.32-.04.64-.06.96-.06,1.98,0,3.91.74,5.39,2.08,1.72,1.57,2.67,3.8,2.61,6.13l-5.37,200.78c-.08,2.92-1.74,5.56-4.33,6.9-1.16.6-2.41.89-3.67.89-1.56,0-3.12-.46-4.46-1.36l-16.38-11c-2.05-1.38-3.35-3.62-3.52-6.08,0,0-1.85-26.23-1.85-26.28-.32-6.4-5.58-11.41-11.99-11.41h-7.75c-6.36,0-11.63,4.98-11.98,11.33,0,.06-2.09,26.43-2.09,26.43-.19,2.42-1.47,4.62-3.47,5.98l-16.15,11c-1.35.92-2.92,1.39-4.5,1.39Z"/>
          <path d="M131.49,135.77l-5.37,200.78-16.38-11-1.84-26.12c-.53-10.65-9.31-19.01-19.98-19.01h-7.75c-10.61,0-19.38,8.29-19.97,18.89l-2.08,26.24-16.15,11-5.37-200.78c14.97,1.81,30.92,2.75,47.44,2.75s32.47-.94,47.44-2.75M131.49,119.77c-.64,0-1.28.04-1.92.12-14.48,1.75-29.79,2.63-45.52,2.63s-31.05-.89-45.52-2.63c-.64-.08-1.28-.12-1.92-.12-3.96,0-7.81,1.47-10.77,4.17-3.44,3.13-5.35,7.61-5.22,12.26l5.37,200.78c.16,5.85,3.49,11.15,8.7,13.82,2.3,1.18,4.8,1.76,7.29,1.76,3.16,0,6.3-.93,9.01-2.78l16.15-11c4.01-2.73,6.56-7.13,6.94-11.96l2.08-26.24c0-.12.02-.25.03-.37.12-2.12,1.87-3.78,3.99-3.78h7.75c2.13,0,3.89,1.67,4,3.8,0,.11.01.22.02.33l1.84,26.12c.35,4.92,2.95,9.41,7.04,12.16l16.38,11c2.69,1.8,5.8,2.72,8.92,2.72,2.51,0,5.03-.59,7.34-1.78,5.18-2.68,8.5-7.96,8.66-13.79l5.37-200.78c.12-4.65-1.78-9.12-5.22-12.26-2.96-2.7-6.81-4.17-10.77-4.17h0ZM131.49,151.77h0,0Z"/>
        </g>
      </g>
    </g>
  </g>
</svg>