<?xml version="1.0" encoding="UTF-8"?>
<svg id="Ebene_2" xmlns="http://www.w3.org/2000/svg" viewBox="0 0 598.33 569.98">
  <defs>
    <style>
      .cls-1 {
        fill: #fff;
      }
    </style>
  </defs>
  <g id="Torpedo">
    <path class="cls-1" d="M597.87,217.02c-.42-1.29-1.1-2.45-1.97-3.42-.77-.86-1.71-1.55-2.74-2.08-.24-.12-.49-.24-.74-.34-.7-.29-1.44-.51-2.22-.62l-37.64-5.47-5.95-.87-79.76-11.59-16.85-2.45-28.9-4.2-25.1-3.65h-.05s-.95-.15-.95-.15l-15.87-32.15s0,0,0,0l-15.34-31.07-20.41-41.36-11.66-23.62h0l-17.4-35.25-6.64-13.45c-1.6-3.24-4.9-5.3-8.52-5.3s-6.92,2.05-8.52,5.3l-5.4,10.94-15.55,31.5-10.04,20.34h0l-16.49,33.41h0l-10.96,22.21h0l-19.11,38.72h0l-9.75,19.76-123.3,17.92-28.63,4.16-36.71,5.33-6.58.96c-.08.01-.16.04-.23.05-2.49.43-4.66,1.81-6.09,3.8-.57.79-1.03,1.66-1.34,2.61-.26.82-.41,1.65-.45,2.48,0,.05-.01.09-.01.14-.01.44,0,.88.05,1.31.14,1.3.54,2.56,1.19,3.71.43.76.98,1.47,1.63,2.1l141.26,137.69-3.39,19.75h0s-6.01,35.05-6.01,35.05l-7.91,46.09-8.79,51.25-2.41,14.03-4.85,28.25c-.08.45-.12.89-.13,1.34-.01.44,0,.89.05,1.32.19,1.74.87,3.4,1.95,4.79.27.35.56.68.88.98s.66.6,1.03.86c0,0,0,0,0,0,.34.24.69.46,1.05.65.05.03.1.06.15.08.34.18.7.33,1.05.47.07.02.13.05.2.07.36.13.72.23,1.09.31.06.01.12.02.18.04.38.08.77.14,1.16.16.02,0,.05,0,.07,0,.21.01.42.02.63.02.12,0,.23-.02.35-.02.16,0,.33-.01.49-.03.25-.02.51-.06.76-.1.16-.03.31-.05.47-.08.27-.06.54-.14.81-.23.13-.04.26-.07.39-.12.39-.14.78-.31,1.15-.5,0,0,0,0,0,0l2.71-1.42h0s19.49-10.25,19.49-10.25h0s31.61-16.62,31.61-16.62l23.12-12.15,31.33-16.47h0l66.35-34.88,95.2,50.05,31.03,16.31,22.13,11.63s0,0,0,0l26.25,13.8c.17.09.35.16.53.24,1.24.56,2.56.85,3.89.85.92,0,1.83-.14,2.71-.4,1.01-.3,1.99-.77,2.87-1.41.73-.53,1.37-1.15,1.91-1.85,1.62-2.08,2.33-4.77,1.87-7.44l-1.74-10.14-2.67-15.55-28.94-168.73,141.25-137.69c.32-.32.62-.65.89-1,1.08-1.41,1.74-3.08,1.92-4.81.14-1.3,0-2.64-.41-3.93ZM160.65,504.72l.42-2.43c.53.47,1.07.91,1.6,1.37l-2.02,1.06ZM299.17,124.82c19.45,0,35.39,14.97,36.96,34.02-11.5,1.54-23.96,2.34-36.96,2.34s-25.46-.8-36.96-2.34c1.57-19.05,17.51-34.02,36.96-34.02ZM299.17,201.65c-12.65,0-24.78-.76-36.03-2.22l-.79-25.47c11.58,1.46,23.97,2.21,36.82,2.21s25.23-.76,36.82-2.21l-.79,25.47c-11.24,1.46-23.37,2.22-36.03,2.22ZM334.72,214.58l-4.02,150.47-12.28-8.24-1.38-19.57c-.4-7.98-6.98-14.25-14.97-14.25h-5.81c-7.95,0-14.52,6.21-14.97,14.15l-1.56,19.67-12.11,8.24-4.02-150.47c11.22,1.35,23.18,2.06,35.55,2.06s24.33-.71,35.55-2.06ZM308.07,445.15h-18.55l.85-26.16-42.2,13.49,17.24-43.61,27.89-17.99,2.97-32.91h5.81l2.64,32.91,27.47,17.99,17.99,43.61-42.86-13.49.76,26.16Z"/>
  </g>
</svg>