<?xml version="1.0" encoding="UTF-8"?>
<svg id="Ebene_2" data-name="Ebene 2" xmlns="http://www.w3.org/2000/svg" xmlns:xlink="http://www.w3.org/1999/xlink" viewBox="0 0 1048 996.61">
  <defs>
    <style>
      .cls-1 {
        fill: url(#Unbenannter_Verlauf_277);
      }
    </style>
    <radialGradient id="Unbenannter_Verlauf_277" data-name="Unbenannter Verlauf 277" cx="524" cy="498.31" fx="524" fy="498.31" r="324" gradientUnits="userSpaceOnUse">
      <stop offset=".15" stop-color="#fff" stop-opacity="0"/>
      <stop offset=".32" stop-color="#fff" stop-opacity=".4"/>
      <stop offset=".78" stop-color="#000" stop-opacity=".5"/>
    </radialGradient>
  </defs>
  <g id="Blackhole">
    <g>
      <path d="m947.79,714.89c-17.81,15.79-34.11,28.98-53.78,41.96-79.96,51.18-175.45,69.05-268.13,39.89-4.9-1.53-9.75-3.18-14.54-4.94,38.32,2.13,77.58-3.5,115.64-16.37,102.35-36.49,174.09-110.94,215.29-211.21,39.34-97.46,39.46-196.61,9.89-296-22.65-75.2-62.33-139.6-114.3-193.76,41.04,47.2,70.93,103.51,85.61,165.13,4.77,23.32,8.04,44.03,9.45,67.55,4.34,94.84-27.93,186.47-99.52,252.15-3.78,3.48-7.63,6.85-11.55,10.12,21-32.12,35.76-68.93,43.64-108.33,19.57-106.88-9.03-206.24-75.27-292.05-64.73-82.8-150.54-132.48-251.4-156.56-76.45-17.99-152.06-15.82-224.95,2.11,61.4-11.94,125.11-9.67,185.81,8.43,22.58,7.53,42.15,15.05,63.23,25.59,84.3,43.66,147.53,117.42,168.6,212.26,1.13,5.01,2.12,10.03,2.99,15.06-17.31-34.25-41.82-65.44-72-91.96-82.78-70.39-183.13-95.3-290.56-80.84-104.07,14.66-190,64.13-261.29,139.44C56.85,299.77,20.92,366.34,0,438.43c20.36-59.14,54.18-113.19,100.21-156.7,17.81-15.79,34.11-28.98,53.78-41.96,79.96-51.18,175.45-69.05,268.13-39.89,4.9,1.53,9.75,3.18,14.54,4.94-38.32-2.13-77.58,3.5-115.64,16.37-102.35,36.49-174.09,110.94-215.29,211.21-39.34,97.46-39.46,196.61-9.89,296,22.65,75.2,62.33,139.6,114.3,193.76-41.04-47.2-70.93-103.51-85.61-165.13-4.77-23.32-8.04-44.03-9.45-67.55-4.34-94.84,27.93-186.47,99.52-252.15,3.78-3.48,7.63-6.85,11.55-10.12-21,32.12-35.76,68.93-43.64,108.33-19.57,106.88,9.03,206.24,75.27,292.05,64.73,82.8,150.54,132.48,251.4,156.56,76.45,17.99,152.06,15.82,224.95-2.11-61.4,11.94-125.11,9.67-185.81-8.43-22.58-7.53-42.15-15.05-63.23-25.59-84.3-43.66-147.53-117.42-168.6-212.26-1.13-5.01-2.12-10.03-2.99-15.06,17.31,34.25,41.82,65.44,72,91.96,82.78,70.39,183.13,95.3,290.56,80.84,104.07-14.66,190-64.13,261.29-139.44,53.8-57.21,89.73-123.78,110.65-195.87-20.36,59.14-54.18,113.19-100.21,156.7Zm-558.47-216.58c0-74.38,60.3-134.68,134.68-134.68s134.68,60.3,134.68,134.68-60.3,134.68-134.68,134.68-134.68-60.3-134.68-134.68Z"/>
      <circle class="cls-1" cx="524" cy="498.31" r="324"/>
    </g>
  </g>
</svg>