<?xml version="1.0" encoding="UTF-8"?>
<svg id="Ebene_2" data-name="Ebene 2" xmlns="http://www.w3.org/2000/svg" viewBox="0 0 598.33 569.98">
  <defs>
    <style>
      .cls-1 {
        fill: #fff;
      }
    </style>
  </defs>
  <g id="UPGRADE">
    <path class="cls-1" d="m597.87,217.02c-1.12-3.44-4.09-5.95-7.67-6.47l-195.21-28.37L307.68,5.3c-1.6-3.24-4.9-5.3-8.52-5.3s-6.92,2.05-8.52,5.3l-87.3,176.89L8.13,210.55c-3.58.52-6.55,3.03-7.67,6.47-1.12,3.44-.19,7.21,2.4,9.74l141.26,137.69-33.35,194.42c-.61,3.56.85,7.17,3.78,9.29,2.93,2.13,6.8,2.41,10,.72l174.6-91.79,174.6,91.79c1.39.73,2.91,1.09,4.42,1.09,1.97,0,3.93-.61,5.58-1.81,2.93-2.12,4.39-5.73,3.78-9.29l-33.35-194.42,141.25-137.69c2.59-2.52,3.52-6.3,2.4-9.74Zm-175.85,19.22c3.59-2.07,8.17-.84,10.25,2.75,2.07,3.59.84,8.17-2.75,10.25l-32.5,18.77c-2.22-4.51-4.73-8.84-7.53-12.97l32.54-18.79Zm-57.1-51.61c2.07-3.59,6.66-4.82,10.25-2.75,3.59,2.07,4.82,6.66,2.75,10.25l-18.93,32.78c-4.16-2.74-8.53-5.21-13.06-7.38l19-32.91Zm-75.25-16.15c0-4.14,3.36-7.5,7.5-7.5s7.5,3.36,7.5,7.5v38.64c-1.82-.09-3.66-.14-5.5-.14-3.2,0-6.37.15-9.5.42v-38.92Zm-70.5,13.4c3.59-2.07,8.17-.84,10.25,2.75l19.89,34.45c-4.46,2.31-8.75,4.91-12.82,7.79l-20.06-34.74c-2.07-3.59-.84-8.17,2.75-10.25Zm-57.1,57.1c2.07-3.59,6.66-4.82,10.25-2.75l35.43,20.46c-2.72,4.18-5.16,8.56-7.3,13.11l-35.64-20.57c-3.59-2.07-4.82-6.66-2.75-10.25Zm-20.9,78c0-4.14,3.36-7.5,7.5-7.5h41.7c-.13,2.15-.2,4.32-.2,6.5,0,2.86.11,5.69.33,8.5h-41.83c-4.14,0-7.5-3.36-7.5-7.5Zm31.15,80.75c-1.18.68-2.47,1.01-3.74,1.01-2.59,0-5.11-1.34-6.5-3.75-2.07-3.59-.84-8.17,2.75-10.25l36.39-21.01c2.21,4.51,4.72,8.85,7.5,12.99l-36.39,21.01Zm57.1,51.61c-1.39,2.41-3.91,3.75-6.5,3.75-1.27,0-2.56-.32-3.74-1.01-3.59-2.07-4.82-6.66-2.75-10.25l20.88-36.16c4.1,2.84,8.41,5.41,12.89,7.67l-20.78,35.99Zm75.25,16.15c0,4.14-3.36,7.5-7.5,7.5s-7.5-3.36-7.5-7.5v-40.92c3.13.27,6.3.42,9.5.42,1.84,0,3.68-.05,5.5-.14v40.64Zm70.5-13.4c-1.18.68-2.47,1.01-3.74,1.01-2.59,0-5.11-1.34-6.5-3.75l-19.91-34.48c4.56-2.12,8.94-4.54,13.13-7.25l19.76,34.23c2.07,3.59.84,8.17-2.75,10.25Zm-76-50.1c-47.5,0-86-38.5-86-86s38.5-86,86-86,86,38.5,86,86-38.5,86-86,86Zm133.1-7c-1.39,2.41-3.91,3.75-6.5,3.75-1.27,0-2.56-.32-3.74-1.01l-33.53-19.36c2.86-4.09,5.46-8.38,7.75-12.85l33.28,19.21c3.59,2.07,4.82,6.66,2.75,10.25Zm13.4-70.5h-37.83c.22-2.81.33-5.64.33-8.5,0-2.18-.07-4.35-.2-6.5h37.7c4.14,0,7.5,3.36,7.5,7.5s-3.36,7.5-7.5,7.5Z"/>
  </g>
</svg>