<?xml version="1.0" encoding="UTF-8"?>
<svg id="Ebene_2" data-name="Ebene 2" xmlns="http://www.w3.org/2000/svg" viewBox="0 0 598.33 569.98">
  <defs>
    <style>
      .cls-1 {
        fill: #fff;
      }
    </style>
  </defs>
  <g id="XRAY">
    <path class="cls-1" d="m597.87,217.02c-1.12-3.44-4.09-5.95-7.67-6.47l-195.21-28.37L307.68,5.3c-1.6-3.24-4.9-5.3-8.52-5.3s-6.92,2.05-8.52,5.3l-87.3,176.89L8.13,210.55c-3.58.52-6.55,3.03-7.67,6.47-1.12,3.44-.19,7.21,2.4,9.74l141.26,137.69-33.35,194.42c-.61,3.56.85,7.17,3.78,9.29,2.93,2.13,6.8,2.41,10,.72l174.6-91.79,174.6,91.79c1.39.73,2.91,1.09,4.42,1.09,1.97,0,3.93-.61,5.58-1.81,2.93-2.12,4.39-5.73,3.78-9.29l-33.35-194.42,141.25-137.69c2.59-2.52,3.52-6.3,2.4-9.74Zm-484.48,36.3l65.16-17.1,103.06,66.08-3.7,11.55-122-7.86-42.52-52.68Zm134.94,196.87l-63.31,23.57,3.7-68.4,94.74-76.71,9.71,6.93-44.83,114.61Zm43.9-160.36l-30.5-118.31,36.97-57.3,36.97,57.3-30.5,118.31h-12.94Zm55.46,159.44l-44.36-113.68,10.63-6.93,93.81,76.71,3.7,68.4-63.78-24.49Zm93.81-143.26l-121.08,7.86-3.7-12.48,102.13-65.16,66.09,17.1-43.44,52.68Z"/>
  </g>
</svg>