<?xml version="1.0" encoding="UTF-8"?>
<svg id="Ebene_2" data-name="Ebene 2" xmlns="http://www.w3.org/2000/svg" viewBox="0 0 598.33 569.98">
  <defs>
    <style>
      .cls-1 {
        fill: #fff;
      }
    </style>
  </defs>
  <g id="Confusion">
    <g>
      <path class="cls-1" d="m275.2,373.15c-3.06,1.36-5.8,2.72-8.1,4.09-4.4,2.64-5.95,4.63-5.94,5.61.11,8.6,11.81,21.1,25.19,30.63,3.35.02,6.75-.07,10.18-.26,3.71-12.32,1.63-24.53-3.74-36.6-5.93-.83-11.81-1.99-17.6-3.48Z"/>
      <path class="cls-1" d="m252.51,409.53c-7.33-9.11-11.24-18.19-11.35-26.41-.1-7.92,3.52-13.87,9.53-18.78-11.54-5.5-22.1-12.75-30.97-21.95-8.6,17.56-11.2,33.94-4.96,44.52,6.07,10.28,19.85,18.2,37.74,22.62Z"/>
      <path class="cls-1" d="m225.78,277.05c-2.12-8.32-1.69-16.53,2.5-24.65,9.65-18.71,33.57-35.32,61.99-43.41-7.42-3.26-14.38-5.02-20.06-5.02-.26,0-.51,0-.76.01-18.49.53-37.88,18.39-47.47,35.77-4.95,8.97-10.86,23.89-9.22,42.2,4.25-1.87,8.6-3.5,13.02-4.91Z"/>
      <path class="cls-1" d="m225.06,298.52c-2.62,1.02-5.17,2.12-7.63,3.31.52,1.35,1.08,2.7,1.69,4.07,1.91-2.49,3.9-4.95,5.95-7.38Z"/>
      <path class="cls-1" d="m357.29,235.72c3.75,0,7.45.11,11.11.32-7.6-5.08-15.62-8.21-23.51-10.02,2.68,3.15,5.19,6.41,7.51,9.76,1.64-.04,3.26-.06,4.89-.06Z"/>
      <path class="cls-1" d="m230.41,324.35c12.41,15.01,29.2,23.2,43.47,27.66,1.03-.42,2.07-.83,3.12-1.24-5.78-7.77-12.2-15.49-18.56-23.13-5.41-6.5-10.74-12.9-15.52-19.23-4.58,5.19-8.78,10.54-12.51,15.94Z"/>
      <path class="cls-1" d="m293.98,274.39c20.36,5.96,37.67,18.27,51.18,32.24,8.27-18.7,3.62-36.55-3.5-50.09-18.95,1.79-38.05,6.85-54.93,16.08,2.49.5,4.91,1.09,7.25,1.77Z"/>
      <path class="cls-1" d="m246.05,261.57c-1.62,3.15-1.75,6.79-.74,10.82,2.54-.41,5.09-.75,7.61-1.01,6.53-5.23,13.3-9.95,20.15-14,17.43-10.32,36.57-16.5,55.69-19.48-4.28-4.93-8.94-9.42-13.78-13.42-5.15.54-9.74,1.39-13.5,2.26-25.05,5.8-47.84,20.12-55.43,34.83Z"/>
      <path class="cls-1" d="m241.35,427.18c-20.68-6.2-35.83-16.61-43.8-30.1-10.72-18.15-7.56-43.74,8.86-72.24-2.37-4.04-4.44-8.15-6.2-12.32-5.07,4.04-9.44,8.52-12.98,13.37-16.07,22-9.91,48.2-4.81,61.86,10.52,28.16,34.47,52.34,56.97,57.49,17.7,4.05,33.01.4,43.86-9.87-1.12-.67-2.23-1.36-3.32-2.05-13.69-.57-26.93-2.65-38.58-6.14Z"/>
      <path class="cls-1" d="m288.35,293.58c-8.04-2.36-17.6-3.25-27.64-2.73-1.21,1.04-2.41,2.09-3.58,3.16,4.88,6.64,10.72,13.67,16.69,20.83,7.38,8.87,15.31,18.39,22.4,28.46,13.48-5.42,26.91-11.7,36.81-20.52-11.61-12.66-26.77-23.96-44.67-29.2Z"/>
      <path class="cls-1" d="m595.46,226.76c2.59-2.52,3.52-6.3,2.4-9.74-1.12-3.44-4.09-5.95-7.67-6.47l-195.15-28.36s-.07-.03-.09-.06L307.68,5.3c-1.6-3.24-4.9-5.3-8.52-5.3s-6.92,2.05-8.52,5.3l-87.27,176.84s-.05.06-.09.06L8.13,210.55c-3.58.52-6.55,3.03-7.67,6.47-1.12,3.44-.19,7.21,2.4,9.74l141.21,137.65s.04.06.03.1l-33.29,194.1c-.49,2.85.19,5.83,2.07,8.02,2.97,3.46,7.81,4.29,11.67,2.26l174.55-91.77s.07-.02.11,0l174.55,91.77c1.39.73,2.91,1.09,4.42,1.09,2.63,0,5.24-1.09,7.13-3.22,1.97-2.21,2.68-5.27,2.18-8.18l-33.29-194.07s0-.08.03-.1l141.21-137.65Zm-143.75,86.16c-5.42,8.55-13.39,17.05-23.01,24.94-.06,1.19-.12,2.37-.21,3.56-3.19,47.8-23.39,88.74-51.48,104.31-20.27,11.23-47.5,10.7-75.24-.94-12.09,14.21-29.29,22.04-48.88,22.04-5.8,0-11.81-.69-17.97-2.1-29.04-6.65-58.33-35.43-71.24-69.99-11.24-30.09-8.61-58.74,7.4-80.65,6.25-8.55,14.13-15.85,23.01-21.88-3.88-21.02-.44-42.55,10.37-62.13,14.62-26.47,41.11-45.43,64.41-46.09,15.72-.45,34.89,7.33,52.21,19.98,23.4-.9,44.88,5.23,62.04,17.99,7.25,5.39,13.73,11.87,19.38,19.27,7.25,1.85,14.01,4.1,20.1,6.67,20.2,8.53,33.08,20.5,36.28,33.73,2.29,9.45-.19,20.27-7.17,31.29Z"/>
      <path class="cls-1" d="m363.38,255.89c8.17,20.15,8.24,40.63-.09,59.19-1.27,2.83-2.73,5.51-4.35,8.04,5,6.94,9.07,13.86,12.12,20.24.68,1.41,1.32,2.82,1.92,4.21,12.84-5.16,25.3-12,35.95-19.65-.09-26.79-6.56-50.75-18.31-68.89-8.58-1.74-17.78-2.83-27.24-3.14Z"/>
      <path class="cls-1" d="m417.48,267.5c5.47,13.16,9.07,27.84,10.6,43.54,2.61-2.93,4.87-5.88,6.73-8.82,3.95-6.24,5.6-11.88,4.63-15.88-1.18-4.88-7.59-12.26-21.96-18.84Z"/>
      <path class="cls-1" d="m348.14,355.2c1.91-.4,3.83-.84,5.75-1.33-.28-.62-.57-1.24-.87-1.87-2.04-4.27-4.61-8.82-7.66-13.43-9.65,8.31-21.28,14.5-32.93,19.63,12.08.36,24.29-.63,35.71-2.99Z"/>
      <path class="cls-1" d="m358.93,388.16c1.62-3.91,1.92-9.15.98-15.19-2.58.68-5.15,1.29-7.71,1.82-11.79,2.44-24.53,3.68-37.49,3.51,3.37,10.41,4.71,21.21,2.92,32.34,21.2-4.19,37.21-12.62,41.3-22.48Z"/>
      <path class="cls-1" d="m377.4,395.82c-6.95,16.75-27.37,29.09-56.2,34.57,15.85,4.58,32.69,5.29,46.11-2.15,19.62-10.87,34.93-40.32,39.9-75.4-8.89,5.29-18.41,9.98-28.12,13.8,2.22,11.06,1.68,21.04-1.69,29.17Z"/>
    </g>
  </g>
</svg>